<svg id="_8" data-name="8" xmlns="http://www.w3.org/2000/svg" xmlns:xlink="http://www.w3.org/1999/xlink" viewBox="0 0 772.72 771.04"><defs><style>.cls-1{fill:url(#Degradado_sin_nombre_4);}.cls-2{font-size:469.07px;}.cls-2,.cls-3,.cls-4{fill:#0c82ab;}.cls-2,.cls-3{font-family:NasalizationRg-Regular, Nasalization;}.cls-3{font-size:468.67px;}.cls-4{fill-rule:evenodd;}.cls-5{fill:none;}</style><linearGradient id="Degradado_sin_nombre_4" x1="4.72" y1="382.62" x2="769.96" y2="382.62" gradientUnits="userSpaceOnUse"><stop offset="1" stop-color="#fff"/><stop offset="1" stop-color="#b6b6b6"/><stop offset="1" stop-color="#030303"/><stop offset="1"/></linearGradient></defs><title>icon</title><circle class="cls-1" cx="387.34" cy="382.62" r="382.62"/><text class="cls-2" transform="translate(226.41 338.47) rotate(90)">D</text><text class="cls-3" transform="translate(542.99 470.88) rotate(-90)">K</text><g id="Shapes"><path class="cls-4" d="M615.62,615.5c111.16-75.9,167.83-216.28,131-353.67C700,87.9,521.26-15.32,347.33,31.29c-142.11,38.08-237,164.39-241.54,304.19,19.67-114.74,103.9-213.3,223.73-245.41,164.15-44,332.86,53.42,376.85,217.58,30.89,115.3-8,232.86-90.75,307.85Z" transform="translate(-15.28 -17)"/><path class="cls-4" d="M183.81,82.44C52.08,172.39-15.08,338.76,28.54,501.57,83.77,707.7,295.63,830,501.75,774.78,670.17,729.65,782.62,580,788,414.28c-23.31,136-123.13,252.79-265.14,290.84C328.33,757.24,128.39,641.8,76.27,447.28c-36.61-136.65,9.45-276,107.54-364.84Z" transform="translate(-15.28 -17)"/></g><line class="cls-5" x1="568.09" y1="359.52" x2="568.09" y2="352.92"/></svg>